<svg width="130" height="41" viewBox="0 0 130 41" fill="none" xmlns="http://www.w3.org/2000/svg">
<path d="M19.9606 2.81128C17.6082 2.81128 15.2788 3.27559 13.1054 4.17754C10.9321 5.07959 8.95741 6.40164 7.29392 8.0683C5.63053 9.73507 4.31108 11.7136 3.41081 13.8913C2.51063 16.0689 2.04724 18.403 2.04724 20.76C2.04724 23.117 2.51063 25.4511 3.41081 27.6287C4.31108 29.8064 5.63053 31.7849 7.29392 33.4517C8.95741 35.1184 10.9321 36.4404 13.1054 37.3425C15.2788 38.2444 17.6082 38.7087 19.9606 38.7087V29.7344C18.7844 29.7344 17.6197 29.5023 16.533 29.0512C15.4464 28.6002 14.459 27.9392 13.6273 27.1058C12.7956 26.2725 12.1359 25.2832 11.6858 24.1944C11.2356 23.1055 11.0039 21.9386 11.0039 20.76C11.0039 19.5814 11.2356 18.4145 11.6858 17.3256C12.1359 16.2368 12.7956 15.2475 13.6273 14.4142C14.459 13.5808 15.4464 12.9198 16.533 12.4688C17.6197 12.0177 18.7844 11.7856 19.9606 11.7856V2.81128Z" fill="#222222"/>
<path d="M19.9607 26.7428C23.2585 26.7428 25.9318 24.0643 25.9318 20.76C25.9318 17.4557 23.2585 14.7771 19.9607 14.7771C16.6629 14.7771 13.9896 17.4557 13.9896 20.76C13.9896 24.0643 16.6629 26.7428 19.9607 26.7428Z" fill="#222222"/>
<path d="M2.04724 20.76C2.04724 23.117 2.51063 25.4511 3.41081 27.6287C4.31108 29.8064 5.63053 31.7849 7.29392 33.4517C8.95741 35.1184 10.9321 36.4404 13.1054 37.3425C15.2788 38.2444 17.6082 38.7087 19.9606 38.7087C22.313 38.7087 24.6425 38.2444 26.8158 37.3425C28.9892 36.4404 30.9638 35.1184 32.6273 33.4517C34.2907 31.7849 35.6102 29.8064 36.5104 27.6287C37.4106 25.4511 37.874 23.117 37.874 20.76H28.9173C28.9173 21.9386 28.6857 23.1055 28.2355 24.1944C27.7854 25.2832 27.1257 26.2725 26.294 27.1059C25.4623 27.9392 24.4749 28.6002 23.3882 29.0512C22.3015 29.5023 21.1369 29.7344 19.9606 29.7344C18.7844 29.7344 17.6197 29.5023 16.533 29.0512C15.4464 28.6002 14.459 27.9392 13.6273 27.1059C12.7956 26.2725 12.1359 25.2832 11.6858 24.1944C11.2356 23.1055 11.0039 21.9386 11.0039 20.76H2.04724Z" fill="#222222"/>
<path d="M25.9318 20.7601C25.9318 19.1733 25.3027 17.6516 24.1829 16.5295C23.0631 15.4075 21.5443 14.7771 19.9607 14.7771C18.3771 14.7771 16.8583 15.4075 15.7385 16.5295C14.6186 17.6516 13.9895 19.1733 13.9895 20.7601H19.9607H25.9318Z" fill="#222222"/>
<path d="M47.2295 14.0164H45.0046V26.401H47.2295V14.0164Z" fill="#222222"/>
<path d="M48.6824 22.0133C48.6824 24.8795 50.66 26.6487 53.2733 26.6487C55.8866 26.6487 57.8643 24.8795 57.8643 22.0133C57.8643 19.1472 55.8866 17.3779 53.2733 17.3779C50.66 17.3779 48.6824 19.1472 48.6824 22.0133ZM50.9072 22.0133C50.9072 20.3149 51.896 19.3241 53.2733 19.3241C54.6506 19.3241 55.6394 20.3149 55.6394 22.0133C55.6394 23.7118 54.6506 24.7025 53.2733 24.7025C51.896 24.7025 50.9072 23.7118 50.9072 22.0133Z" fill="#222222"/>
<path d="M65.8148 17.6256V18.811H65.6382C65.1085 18.0502 64.2609 17.3779 62.7424 17.3779C60.6588 17.3779 58.7871 19.1472 58.7871 21.8718C58.7871 24.5964 60.6588 26.3656 62.7424 26.3656C64.2609 26.3656 65.1085 25.6756 65.6029 24.9856H65.7795V25.8349C65.7795 27.5333 64.7907 28.3118 63.3427 28.3118C61.8948 28.3118 61.1532 27.5333 60.853 26.5248L58.8577 27.3918C59.3168 28.7186 60.6588 30.1872 63.3781 30.1872C66.1679 30.1872 68.0043 28.7186 68.0043 25.8879V17.6256H65.8148ZM63.4134 24.4549C62.0361 24.4549 61.012 23.4641 61.012 21.8718C61.012 20.2795 62.0361 19.2887 63.4134 19.2887C64.7907 19.2887 65.8148 20.2795 65.8148 21.8718C65.8148 23.4641 64.7907 24.4549 63.4134 24.4549Z" fill="#222222"/>
<path d="M69.4436 22.0133C69.4436 24.8795 71.4212 26.6487 74.0345 26.6487C76.6479 26.6487 78.6254 24.8795 78.6254 22.0133C78.6254 19.1472 76.6479 17.3779 74.0345 17.3779C71.4212 17.3779 69.4436 19.1472 69.4436 22.0133ZM71.6684 22.0133C71.6684 20.3149 72.6573 19.3241 74.0345 19.3241C75.4118 19.3241 76.4007 20.3149 76.4007 22.0133C76.4007 23.7118 75.4118 24.7025 74.0345 24.7025C72.6573 24.7025 71.6684 23.7118 71.6684 22.0133Z" fill="#222222"/>
<path d="M80.3717 15.0779C80.3717 15.9803 81.0606 16.5995 81.944 16.5995C82.8264 16.5995 83.5152 15.9803 83.5152 15.0779C83.5152 14.1757 82.8264 13.5564 81.944 13.5564C81.0606 13.5564 80.3717 14.1757 80.3717 15.0779ZM83.0556 17.6256H80.8313V26.401H83.0556V17.6256Z" fill="#222222"/>
<path d="M85.0385 29.9395H87.2638V25.2687H87.4399C87.9343 25.9764 88.7818 26.6487 90.3009 26.6487C92.384 26.6487 94.2562 24.8795 94.2562 22.0133C94.2562 19.1472 92.384 17.3779 90.3009 17.3779C88.7818 17.3779 87.9343 18.0502 87.4051 18.8111H87.228V17.6256H85.0385V29.9395ZM89.6294 24.7379C88.2526 24.7379 87.228 23.7472 87.228 22.0133C87.228 20.2795 88.2526 19.2887 89.6294 19.2887C91.0072 19.2887 92.0308 20.2795 92.0308 22.0133C92.0308 23.7472 91.0072 24.7379 89.6294 24.7379Z" fill="#222222"/>
<path d="M95.5541 20.0849C95.5541 21.8188 97.0015 22.4557 98.8378 22.8095L99.2974 22.8979C100.392 23.1102 100.886 23.3757 100.886 23.9418C100.886 24.508 100.392 24.9502 99.3681 24.9502C98.3434 24.9502 97.5143 24.5256 97.284 23.2518L95.2357 23.7825C95.5367 25.6225 97.0721 26.6487 99.3681 26.6487C101.592 26.6487 103.041 25.6049 103.041 23.7649C103.041 21.9248 101.558 21.4295 99.58 21.0403L99.1204 20.9518C98.2022 20.7749 97.7078 20.5272 97.7078 19.9434C97.7078 19.4126 98.1674 19.0764 99.0149 19.0764C99.8625 19.0764 100.462 19.4302 100.674 20.3856L102.688 19.7664C102.264 18.3511 100.975 17.3779 99.0149 17.3779C96.9308 17.3779 95.5541 18.3511 95.5541 20.0849Z" fill="#222222"/>
<path d="M113.034 26.4011V17.6257H110.81V22.155C110.81 23.7827 110.016 24.738 108.655 24.738C107.455 24.738 106.784 24.0835 106.784 22.7565V17.6257H104.559V22.8627C104.559 25.0389 105.919 26.5427 107.967 26.5427C109.574 26.5427 110.316 25.835 110.669 25.0919H110.845V26.4011H113.034Z" fill="#222222"/>
<path d="M115.008 17.6257V26.4011H117.233V21.1641C117.233 19.9611 117.798 19.2887 118.822 19.2887C119.705 19.2887 120.235 19.7841 120.235 20.7395V26.4011H122.46V21.1641C122.46 19.9611 123.025 19.2887 124.049 19.2887C124.932 19.2887 125.461 19.7841 125.461 20.7395V26.4011H127.687V20.6334C127.687 18.5103 126.379 17.4841 124.755 17.4841C123.325 17.4841 122.672 18.1211 122.248 18.8641H122.071C121.665 18.0326 120.941 17.4841 119.67 17.4841C118.398 17.4841 117.709 18.0503 117.375 18.7226H117.198V17.6257H115.008Z" fill="#222222"/>
</svg>
