<svg width="153" height="39" viewBox="0 0 153 39" fill="none" xmlns="http://www.w3.org/2000/svg">
<g clip-path="url(#clip0_7_2144)">
<path d="M44.5538 27.4469H55.5039V24.1103H48.4457V11.5425H44.5538V27.4469Z" fill="#222222"/>
<path d="M61.9915 25.2225C60.4304 25.2225 59.6168 23.8434 59.6168 21.7747C59.6168 19.706 60.4304 18.3046 61.9915 18.3046C63.5527 18.3046 64.3882 19.706 64.3882 21.7747C64.3882 23.8434 63.5527 25.2225 61.9915 25.2225ZM62.0135 27.8028C65.6415 27.8028 68.0162 25.2002 68.0162 21.7747C68.0162 18.3491 65.6415 15.7466 62.0135 15.7466C58.4074 15.7466 55.9888 18.3491 55.9888 21.7747C55.9888 25.2002 58.4074 27.8028 62.0135 27.8028Z" fill="#222222"/>
<path d="M74.296 31.3838C75.9671 31.3838 77.4403 31.0057 78.4298 30.1159C79.3313 29.2929 79.9249 28.0472 79.9249 26.3345V16.0578H76.4948V17.2812H76.4508C75.7912 16.3247 74.7797 15.7241 73.2846 15.7241C70.4921 15.7241 68.5571 18.082 68.5571 21.4186C68.5571 24.9109 70.9099 26.8238 73.4385 26.8238C74.8017 26.8238 75.6593 26.2677 76.3189 25.5114H76.4069V26.6459C76.4069 28.025 75.7692 28.8258 74.252 28.8258C73.0647 28.8258 72.471 28.3142 72.2731 27.7136H68.799C69.1508 30.0937 71.1957 31.3838 74.296 31.3838ZM74.274 24.1323C72.9327 24.1323 72.0532 23.0201 72.0532 21.3073C72.0532 19.5723 72.9327 18.4601 74.274 18.4601C75.7692 18.4601 76.5608 19.7503 76.5608 21.2851C76.5608 22.8867 75.8352 24.1323 74.274 24.1323Z" fill="#222222"/>
<path d="M86.978 25.2225C85.4168 25.2225 84.6032 23.8434 84.6032 21.7747C84.6032 19.706 85.4168 18.3046 86.978 18.3046C88.5391 18.3046 89.3746 19.706 89.3746 21.7747C89.3746 23.8434 88.5391 25.2225 86.978 25.2225ZM86.9999 27.8028C90.628 27.8028 93.0029 25.2002 93.0029 21.7747C93.0029 18.3491 90.628 15.7466 86.9999 15.7466C83.3939 15.7466 80.9752 18.3491 80.9752 21.7747C80.9752 25.2002 83.3939 27.8028 86.9999 27.8028Z" fill="#222222"/>
<path d="M94.0492 27.4469H97.6332V16.058H94.0492V27.4469ZM94.0492 14.4787H97.6332V11.5425H94.0492V14.4787Z" fill="#222222"/>
<path d="M99.188 31.2059H102.772V26.2677H102.816C103.52 27.2242 104.553 27.8026 106.004 27.8026C108.951 27.8026 110.908 25.4447 110.908 21.7522C110.908 18.3267 109.083 15.7241 106.092 15.7241C104.553 15.7241 103.454 16.4137 102.684 17.4369H102.618V16.0578H99.188V31.2059ZM105.081 24.9998C103.542 24.9998 102.662 23.7319 102.662 21.8857C102.662 20.0394 103.454 18.6381 105.015 18.6381C106.554 18.6381 107.28 19.9282 107.28 21.8857C107.28 23.8209 106.444 24.9998 105.081 24.9998Z" fill="#222222"/>
<path d="M116.744 27.8026C119.69 27.8026 121.867 26.5124 121.867 24.0211C121.867 21.1071 119.536 20.5955 117.557 20.2619C116.128 19.995 114.853 19.8837 114.853 19.083C114.853 18.3711 115.534 18.0375 116.414 18.0375C117.403 18.0375 118.085 18.3489 118.217 19.3721H121.515C121.339 17.1255 119.624 15.7241 116.436 15.7241C113.775 15.7241 111.576 16.9698 111.576 19.3721C111.576 22.0414 113.665 22.5752 115.622 22.9089C117.117 23.1758 118.481 23.287 118.481 24.3103C118.481 25.0443 117.799 25.4447 116.722 25.4447C115.534 25.4447 114.787 24.8886 114.655 23.7542H111.269C111.378 26.2677 113.445 27.8026 116.744 27.8026Z" fill="#222222"/>
<path d="M126.734 27.7804C128.296 27.7804 129.285 27.1576 130.099 26.0454H130.165V27.4467H133.595V16.0579H130.011V22.4196C130.011 23.7765 129.263 24.7107 128.032 24.7107C126.888 24.7107 126.339 24.0212 126.339 22.7755V16.0579H122.777V23.5318C122.777 26.0676 124.14 27.7804 126.734 27.7804Z" fill="#222222"/>
<path d="M135.154 27.4467H138.738V21.0627C138.738 19.7058 139.398 18.7493 140.519 18.7493C141.596 18.7493 142.102 19.4611 142.102 20.6845V27.4467H145.686V21.0627C145.686 19.7058 146.324 18.7493 147.467 18.7493C148.545 18.7493 149.05 19.4611 149.05 20.6845V27.4467H152.634V20.0394C152.634 17.4814 151.359 15.7241 148.808 15.7241C147.357 15.7241 146.148 16.347 145.268 17.7261H145.224C144.653 16.5027 143.531 15.7241 142.058 15.7241C140.431 15.7241 139.354 16.5027 138.65 17.6816H138.584V16.0578H135.154V27.4467Z" fill="#222222"/>
<path fill-rule="evenodd" clip-rule="evenodd" d="M7.92863 4.36683C6.61791 5.294 5.43266 6.3902 4.40376 7.6242C8.60833 7.22931 13.9501 7.87412 20.1518 11.0111C26.7744 14.3608 32.1072 14.4741 35.8186 13.7499C35.4818 12.7184 35.0578 11.7271 34.5557 10.7847C30.3072 11.238 24.8605 10.638 18.513 7.42733C14.4822 5.38849 10.9291 4.54862 7.92863 4.36683ZM32.0739 7.21107C28.7188 3.41881 23.843 1.03223 18.4162 1.03223C16.8225 1.03223 15.2762 1.23808 13.8021 1.62492C15.7986 2.17601 17.9196 2.98226 20.1518 4.1114C24.7992 6.46208 28.8114 7.21896 32.0739 7.21107ZM36.6121 17.3704C32.1284 18.2661 25.9368 18.0822 18.513 14.327C11.5724 10.8164 6.04838 10.8606 2.32276 11.6982C2.13045 11.7413 1.94267 11.7868 1.75943 11.834C1.27166 12.9072 0.882297 14.0357 0.602928 15.2076C0.901309 15.127 1.20964 15.0503 1.52776 14.9788C6.04759 13.9627 12.4337 14.0068 20.1518 17.9108C27.0924 21.4214 32.6164 21.3772 36.3421 20.5396C36.4698 20.511 36.5955 20.4813 36.7192 20.4508C36.7328 20.1585 36.7396 19.8644 36.7396 19.5688C36.7396 18.825 36.6963 18.0914 36.6121 17.3704ZM36.121 24.3626C31.6808 25.1479 25.6695 24.8465 18.513 21.2267C11.5724 17.7161 6.04838 17.7603 2.32276 18.5978C1.49578 18.7837 0.751839 19.0101 0.0955799 19.2491C0.0937906 19.3554 0.0928955 19.462 0.0928955 19.5688C0.0928955 29.8063 8.29653 38.1054 18.4162 38.1054C26.8973 38.1054 34.0326 32.2765 36.121 24.3626Z" fill="#222222"/>
</g>
<defs>
<clipPath id="clip0_7_2144">
<rect width="153" height="38" fill="white" transform="translate(0 0.76001)"/>
</clipPath>
</defs>
</svg>
